# xmcd
#
# Track frame offsets:
#  150
#  18862
#  39189
#  55014
#  69039
#  85464
#  102639
#  116397
#  133012
#  154692
#  171802
#  187854
#  201804
#  218751
#  232704
#  248061
#  261991
#  273391
#  287866
#  303466
#  317073
#
# Disc length: 4411 seconds
#
# Revision: 0
# Processed by: cddbd v1.4PL0 Copyright (c) Steve Scherf et al.
# Submitted via: AltoMP3_Maker 3.0
#
DISCID=1a113915
DTITLE=Los Temerarios - 21 Black Jack
DYEAR=1900
DGENRE=
TTITLE0=ya me voy para siempre
TTITLE1=cuando fuiste mia
TTITLE2=dimelo
TTITLE3=una lagrima mas
TTITLE4=solo te quiero a ti
TTITLE5=derrotado y sin carino
TTITLE6=nostalgia campesina
TTITLE7=estaba solo
TTITLE8=eras todo para mi
TTITLE9=he intentado tanto tanto
TTITLE10=tu me vas llorar
TTITLE11=la mujer que sone
TTITLE12=extranandote
TTITLE13=alejate
TTITLE14=tu infame engano
TTITLE15=dice adios tu mano al viento
TTITLE16=nunca es tarde
TTITLE17=creo que voy a llorar
TTITLE18=vete con el
TTITLE19=no me hace falta tu amor
TTITLE20=la no tengo yo
EXTD=
EXTT0=
EXTT1=
EXTT2=
EXTT3=
EXTT4=
EXTT5=
EXTT6=
EXTT7=
EXTT8=
EXTT9=
EXTT10=
EXTT11=
EXTT12=
EXTT13=
EXTT14=
EXTT15=
EXTT16=
EXTT17=
EXTT18=
EXTT19=
EXTT20=
PLAYORDER=
